<svg width="16" height="16" viewBox="0 0 16 16" fill="none" xmlns="http://www.w3.org/2000/svg">
<path fill-rule="evenodd" clip-rule="evenodd" d="M3.88908 0.998535C3.68266 0.998535 3.48784 1.09397 3.3613 1.25706L1.66711 3.44072C1.65495 3.4564 1.64359 3.47244 1.63304 3.48881C1.4449 3.71885 1.33203 4.01284 1.33203 4.3332V13.3332C1.33203 14.2544 2.07883 15.0012 3.00003 15.0012H13C13.9213 15.0012 14.668 14.2544 14.668 13.3332V4.3332C14.668 3.99852 14.5449 3.69262 14.3414 3.45835C14.3372 3.45269 14.333 3.44707 14.3287 3.4415L12.6397 1.25783C12.5132 1.09428 12.318 0.998535 12.1113 0.998535H3.88908ZM12.2971 2.99854L11.7835 2.33454H4.21629L3.70112 2.99854H12.2971ZM13.332 4.33454H2.66803V13.3332C2.66803 13.5166 2.81667 13.6652 3.00003 13.6652H13C13.1834 13.6652 13.332 13.5166 13.332 13.3332V4.33454ZM4.86118 8.52768C5.12205 8.26681 5.545 8.26681 5.80587 8.52768L7.32935 10.0512V6.33328C7.32935 5.96436 7.62842 5.66528 7.99735 5.66528C8.36627 5.66528 8.66535 5.96436 8.66535 6.33328V10.0569L10.1945 8.52768C10.4554 8.26681 10.8783 8.26681 11.1392 8.52768C11.4001 8.78855 11.4001 9.21151 11.1392 9.47238L8.47254 12.139C8.33708 12.2745 8.15792 12.3396 7.98044 12.3344C7.78435 12.3295 7.60924 12.2402 7.49014 12.1013L4.86118 9.47238C4.60031 9.21151 4.60031 8.78855 4.86118 8.52768Z" fill="#0075FF"/>
</svg>
