<svg width="16" height="16" viewBox="0 0 16 16" fill="none" xmlns="http://www.w3.org/2000/svg">
<path fill-rule="evenodd" clip-rule="evenodd" d="M6.62548 0.111008C6.62548 -0.418862 8.56309 1.03611 9.6766 2.60949C10.9597 4.42253 10.4703 6.11312 10.6728 6.32598C10.9293 6.48684 11.6985 5.83192 11.8589 4.80381C11.8598 4.79798 11.8607 4.79183 11.8616 4.78542C11.8824 4.63208 12.0576 4.54566 12.1778 4.64317V4.64317C13.5335 5.74323 14.3999 7.42279 14.3999 9.30471C14.3999 12.6184 11.7136 15.3047 8.3999 15.3047C5.08619 15.3047 2.3999 12.6184 2.3999 9.30471C2.3999 7.85121 2.98599 6.61074 3.78822 5.49548L3.93196 5.29995C3.96448 5.25663 3.99307 5.20889 4.02837 5.17114C6.2813 2.76218 6.62548 1.07208 6.62548 0.111008ZM7.63275 2.5041L7.56665 2.66559C7.12485 3.69286 6.40558 4.78089 5.35438 5.94496L5.175 6.13935L5.13166 6.20033C4.30162 7.30603 3.9 8.27929 3.9 9.30456C3.9 11.7898 5.91472 13.8046 8.4 13.8046C10.8853 13.8046 12.9 11.7898 12.9 9.30456C12.9 8.61362 12.7436 7.94948 12.4559 7.35223L12.342 7.1331L12.2923 7.18679C11.6616 7.83571 10.8288 8.1242 9.98587 7.66124L9.87588 7.59656L9.71604 7.49631L9.58601 7.35959C9.29213 7.05061 9.18945 6.76972 9.1433 6.4258L9.12838 6.2937C9.12217 6.22798 9.11845 6.1719 9.11604 6.10363L9.1115 5.84034C9.10246 4.81311 8.97664 4.21674 8.4523 3.47587C8.26101 3.20558 8.0283 2.92481 7.77786 2.65592L7.63275 2.5041Z" fill="#0075FF"/>
</svg>
